HIERARCHY
ROOT Hips
{
	OFFSET 0.000000 0.000000 0.000000
	CHANNELS 6 Xposition Yposition Zposition Zrotation Yrotation Xrotation 
	JOINT LeftUpLeg_virtual
	{
		OFFSET 0.000000 0.000000 0.000000
		CHANNELS 3 Zrotation Yrotation Xrotation
		JOINT LeftUpLeg
		{
			OFFSET 10.205400 -3.823500 0.155100
			CHANNELS 3 Zrotation Yrotation Xrotation
			JOINT LeftLeg
			{
				OFFSET 0.708757 -12.982077 0.567790
				CHANNELS 3 Zrotation Yrotation Xrotation
				JOINT LeftFoot
				{
					OFFSET -0.708756 -10.717838 -2.184338
					CHANNELS 3 Zrotation Yrotation Xrotation
					JOINT LeftToeBase
					{
						OFFSET 0.108149 -7.191104 7.560241
						CHANNELS 3 Zrotation Yrotation Xrotation
						End Site
						{
							OFFSET 0.000000 0.000000 0.000000
						}
					}
				}
			}
		}
	}
	JOINT RightUpLeg_virtual
	{
		OFFSET 0.000000 0.000000 0.000000
		CHANNELS 3 Zrotation Yrotation Xrotation
		JOINT RightUpLeg
		{
			OFFSET -10.205400 -3.823500 0.005500
			CHANNELS 3 Zrotation Yrotation Xrotation
			JOINT RightLeg
			{
				OFFSET -0.708756 -12.982134 0.610632
				CHANNELS 3 Zrotation Yrotation Xrotation
				JOINT RightFoot
				{
					OFFSET 0.708754 -10.717769 -1.945823
					CHANNELS 3 Zrotation Yrotation Xrotation
					JOINT RightToeBase
					{
						OFFSET -0.108140 -7.191069 7.372968
						CHANNELS 3 Zrotation Yrotation Xrotation
						End Site
						{
							OFFSET 0.000000 0.000000 0.000000
						}
					}
				}
			}
		}
	}
	JOINT Spine_virtual
	{
		OFFSET 0.000000 0.000000 0.000000
		CHANNELS 3 Zrotation Yrotation Xrotation
		JOINT Spine
		{
			OFFSET 0.000000 6.876099 0.125700
			CHANNELS 3 Zrotation Yrotation Xrotation
			JOINT Spine1
			{
				OFFSET 0.000000 8.022060 0.146608
				CHANNELS 3 Zrotation Yrotation Xrotation
				JOINT Spine2
				{
					OFFSET 0.000000 9.168068 0.167552
					CHANNELS 3 Zrotation Yrotation Xrotation
					JOINT Neck_virtual
					{
						OFFSET 0.000000 0.000000 0.000000
						CHANNELS 3 Zrotation Yrotation Xrotation
						JOINT Neck
						{
							OFFSET 0.000000 10.314075 0.188496
							CHANNELS 3 Zrotation Yrotation Xrotation
							JOINT Head
							{
								OFFSET 0.000000 7.643700 -2.377400
								CHANNELS 3 Zrotation Yrotation Xrotation
								End Site
								{
									OFFSET 0.000000 0.000000 0.000000
								}
							}
						}
					}
					JOINT LeftShoulder_virtual
					{
						OFFSET 0.000000 0.000000 0.000000
						CHANNELS 3 Zrotation Yrotation Xrotation
						JOINT LeftShoulder
						{
							OFFSET 4.392200 8.824978 0.174984
							CHANNELS 3 Zrotation Yrotation Xrotation
							JOINT LeftArm
							{
								OFFSET 8.771219 -2.981674 -0.026999
								CHANNELS 3 Zrotation Yrotation Xrotation
								JOINT LeftForeArm
								{
									OFFSET 8.512804 0.000000 -0.000000
									CHANNELS 3 Zrotation Yrotation Xrotation
									JOINT LeftHand
									{
										OFFSET 18.484802 0.000000 -0.000000
										CHANNELS 3 Zrotation Yrotation Xrotation
										End Site
										{
											OFFSET 0.000000 0.000000 0.000000
										}
									}
								}
							}
						}
					}
					JOINT RightShoulder_virtual
					{
						OFFSET 0.000000 0.000000 0.000000
						CHANNELS 3 Zrotation Yrotation Xrotation
						JOINT RightShoulder
						{
							OFFSET -4.392200 8.824993 0.141379
							CHANNELS 3 Zrotation Yrotation Xrotation
							JOINT RightArm
							{
								OFFSET -8.771282 -2.981682 -0.094208
								CHANNELS 3 Zrotation Yrotation Xrotation
								JOINT RightForeArm
								{
									OFFSET -8.494598 0.000000 0.000000
									CHANNELS 3 Zrotation Yrotation Xrotation
									JOINT RightHand
									{
										OFFSET -18.483803 0.000000 0.000001
										CHANNELS 3 Zrotation Yrotation Xrotation
										End Site
										{
											OFFSET 0.000000 0.000000 0.000000
										}
									}
								}
							}
						}
					}
				}
			}
		}
	}
}
MOTION
Frames: 8
Frame Time: 0.033333
9.643962 33.641823 17.039373 -178.136798 -82.149820 177.841638 1.713671 -1.013411 45.081861 4.927475 -14.014501 -77.349748 3.053207 5.021801 34.871258 -2.550104 7.656544 20.660359 0.000000 0.000000 0.000000 7.295205 -4.312817 45.182589 -34.722817 -4.564675 -61.788132 3.367404 7.094318 38.418602 5.159729 0.883843 11.914312 0.000000 0.000000 0.000000 8.831137 -3.086498 55.314721 6.091095 -1.809113 27.725819 0.321331 -0.620751 6.254502 -0.065372 -0.062057 -0.068578 0.818677 0.266343 9.307681 8.188776 -14.187784 12.280001 0.000000 0.000000 0.000000 1.645646 1.659550 3.541883 -17.207878 -26.827767 3.012270 -13.893044 -39.624598 -15.410324 -7.922214 -31.406671 9.166660 0.000000 0.000000 0.000000 -2.490265 2.724225 3.107266 19.457085 14.118424 -12.536584 36.745629 26.885283 9.311722 -13.885809 49.169535 -7.767891 0.000000 0.000000 0.000000 
9.619829 33.686226 17.017355 -178.066447 -82.604765 177.762380 1.618247 -1.063033 44.838481 4.996072 -14.028748 -77.029309 2.927607 4.900946 34.627041 -2.521465 7.606083 20.724112 0.000000 0.000000 0.000000 7.224974 -4.390425 45.073327 -34.417979 -4.510885 -61.388005 3.363510 7.039910 38.354958 5.196127 0.594616 11.749748 0.000000 0.000000 0.000000 8.852828 -3.118109 55.141883 6.152229 -1.768878 27.709482 0.305431 -0.598340 6.307468 -0.065544 -0.026868 -0.071338 0.886451 0.330552 9.250557 8.180771 -13.866954 12.164868 0.000000 0.000000 0.000000 1.655345 1.535643 3.527372 -17.185647 -26.961169 2.883276 -14.409998 -38.856646 -15.476380 -8.166435 -31.993655 9.084767 0.000000 0.000000 0.000000 -2.459562 2.610265 3.116914 19.485985 14.192436 -12.179441 36.374149 26.684156 9.272901 -13.834336 49.034136 -7.764967 0.000000 0.000000 0.000000 
9.607635 33.721512 16.993349 -178.691395 -82.708974 178.260315 1.513535 -1.006434 44.611828 5.073202 -14.063348 -76.583127 2.793770 4.904134 34.511245 -2.277344 7.635655 20.715457 0.000000 0.000000 0.000000 7.066800 -4.377338 44.881597 -34.194072 -4.377599 -60.983945 3.383359 7.025911 38.154349 5.328430 0.430487 12.039539 0.000000 0.000000 0.000000 8.840386 -3.100929 55.076412 5.893474 -1.741875 27.689922 0.392162 -0.694622 6.292293 -0.000947 -0.093932 -0.052170 0.888478 0.288695 9.275461 8.145282 -13.860695 12.289616 0.000000 0.000000 0.000000 1.650102 1.561659 3.506343 -17.263884 -27.032623 2.848812 -14.841567 -38.080794 -15.491429 -8.240009 -32.533868 8.996547 0.000000 0.000000 0.000000 -2.423480 2.666248 3.035302 19.435536 14.377726 -11.760364 35.899119 26.514449 9.146374 -13.887207 48.934470 -7.827790 0.000000 0.000000 0.000000 
9.599859 33.744953 16.959251 -178.863024 -82.738794 178.444197 1.402138 -0.993213 44.289194 5.354480 -14.168142 -76.313806 2.678672 4.729557 34.472323 -2.338361 7.426103 20.590063 0.000000 0.000000 0.000000 6.996646 -4.330708 44.679003 -33.899281 -4.381448 -60.714788 3.434159 6.969899 38.049324 5.269313 0.240276 11.909844 0.000000 0.000000 0.000000 8.651690 -3.086153 54.845367 5.759805 -1.730714 27.718101 0.445947 -0.679413 6.327345 -0.037829 -0.047666 -0.080906 0.944056 0.251301 9.089229 8.116312 -13.707571 12.048278 0.000000 0.000000 0.000000 1.736232 1.558251 3.442537 -17.374982 -27.176851 3.006456 -15.311259 -37.224862 -15.496530 -8.169868 -33.123791 8.813224 0.000000 0.000000 0.000000 -2.346742 2.672520 3.079273 19.319298 14.561301 -11.485848 35.406738 26.284868 8.786917 -13.858590 48.983514 -7.840993 0.000000 0.000000 0.000000 
9.598162 33.766712 16.919064 -179.122216 -82.758656 178.640579 1.291294 -1.058534 44.032539 5.736642 -14.281675 -76.016385 2.543624 4.613389 34.548381 -2.252630 7.308330 20.486889 0.000000 0.000000 0.000000 6.830970 -4.485526 44.364172 -33.704347 -4.156508 -60.412620 3.500407 6.970137 37.772804 5.255688 0.174335 12.036524 0.000000 0.000000 0.000000 8.546605 -3.135598 54.716099 5.649617 -1.744620 27.709968 0.518017 -0.718094 6.301578 -0.029547 -0.072891 -0.088845 1.019629 0.205317 9.052039 8.113882 -13.565860 12.008743 0.000000 0.000000 0.000000 1.777131 1.577175 3.469429 -17.484181 -27.372485 2.945803 -16.164047 -36.352312 -15.253819 -8.240162 -33.786453 8.807368 0.000000 0.000000 0.000000 -2.254416 2.623510 3.126915 19.253912 14.701335 -11.338406 35.162545 25.826134 8.541302 -13.924253 49.235583 -7.838879 0.000000 0.000000 0.000000 
9.588845 33.784698 16.875433 -178.777483 -82.414265 178.383572 1.264139 -1.040474 43.813485 6.134201 -14.361014 -75.808980 2.400367 4.607030 34.612803 -2.117326 7.222684 20.339562 0.000000 0.000000 0.000000 6.743821 -4.369725 43.935793 -33.481256 -3.961630 -60.098384 3.578687 6.991396 37.353034 5.199420 0.157172 12.348463 0.000000 0.000000 0.000000 8.376676 -3.048305 54.458502 5.478137 -1.624520 27.678023 0.522469 -0.668718 6.266697 -0.041539 -0.051232 -0.110156 1.035523 0.024501 9.003551 7.968521 -13.487733 11.922911 0.000000 0.000000 0.000000 1.911885 1.624289 3.467874 -17.606010 -27.509593 2.949189 -17.232767 -35.403370 -15.060912 -8.304548 -34.433869 8.797271 0.000000 0.000000 0.000000 -2.102695 2.758779 3.082966 19.079691 14.692603 -10.907318 34.812450 25.246713 7.943275 -14.257744 49.812122 -8.137169 0.000000 0.000000 0.000000 
9.576638 33.801216 16.821608 -178.816210 -82.379239 178.399528 1.260306 -1.246152 43.648720 6.549512 -14.450746 -75.551946 2.287896 4.665582 34.723876 -1.749904 7.319857 20.303866 0.000000 0.000000 0.000000 6.533592 -4.554469 43.641726 -33.294597 -3.692395 -59.755085 3.651477 7.094415 36.874156 5.270735 0.333259 12.422681 0.000000 0.000000 0.000000 8.347559 -3.168128 54.272857 5.359208 -1.625006 27.598086 0.567280 -0.689969 6.211479 0.004373 -0.083587 -0.070551 1.111984 0.244190 8.983445 7.945662 -13.363876 11.981511 0.000000 0.000000 0.000000 1.857748 1.629201 3.452357 -17.628925 -27.617749 3.056078 -18.353292 -34.391071 -15.191249 -8.165933 -35.077198 8.670569 0.000000 0.000000 0.000000 -2.098546 2.651769 3.043093 19.020105 14.816757 -10.818115 34.761100 24.528476 7.413913 -14.499149 50.492132 -8.361985 0.000000 0.000000 0.000000 
9.562824 33.816231 16.755787 -178.422668 -81.918932 178.106677 1.306288 -1.214141 43.492876 6.923194 -14.559146 -75.383336 2.195674 4.733367 34.770246 -1.413917 7.408224 20.227178 0.000000 0.000000 0.000000 6.435404 -4.415109 43.250937 -33.152686 -3.394551 -59.494165 3.739131 7.145845 36.398263 5.199154 0.439238 12.498246 0.000000 0.000000 0.000000 8.037746 -3.056372 53.992673 5.235181 -1.507161 27.539599 0.554614 -0.586406 6.211158 -0.045512 -0.005961 -0.082143 1.119888 0.126274 9.004158 7.771588 -13.276176 11.992298 0.000000 0.000000 0.000000 1.897108 1.677994 3.447706 -17.750506 -27.626105 3.054889 -19.637275 -33.359095 -15.814326 -8.253963 -35.765760 8.538186 0.000000 0.000000 0.000000 -2.035541 2.708336 3.090463 18.841854 14.800282 -10.599351 34.630145 23.732927 6.684210 -14.980966 51.365932 -8.980930 0.000000 0.000000 0.000000 
